<mxfile host="app.diagrams.net" modified="2023-03-24T14:24:23.767Z" agent="5.0 (Macintosh)" etag="PjabJUK1JgBF0Mt6vnpw" version="21.0.10" type="github">
  <diagram name="Page-1" id="e7e014a7-5840-1c2e-5031-d8a46d1fe8dd">
    <mxGraphModel dx="1038" dy="604" grid="1" gridSize="10" guides="1" tooltips="1" connect="1" arrows="1" fold="1" page="1" pageScale="1" pageWidth="1169" pageHeight="826" background="none" math="0" shadow="0">
      <root>
        <mxCell id="0" />
        <mxCell id="1" parent="0" />
        <mxCell id="2" value="User" style="swimlane;whiteSpace=wrap" parent="1" vertex="1">
          <mxGeometry x="164.5" y="128" width="280" height="570" as="geometry" />
        </mxCell>
        <mxCell id="MbIi2jLNJX29HKI8zpPr-47" style="edgeStyle=orthogonalEdgeStyle;rounded=0;orthogonalLoop=1;jettySize=auto;html=1;fillColor=#e51400;strokeColor=#FF0000;" parent="2" source="5" target="MbIi2jLNJX29HKI8zpPr-45" edge="1">
          <mxGeometry relative="1" as="geometry" />
        </mxCell>
        <mxCell id="5" value="" style="ellipse;shape=startState;fillColor=#000000;strokeColor=#ff0000;" parent="2" vertex="1">
          <mxGeometry x="100" y="40" width="30" height="30" as="geometry" />
        </mxCell>
        <mxCell id="MbIi2jLNJX29HKI8zpPr-45" value="Login / Register" style="rounded=1;whiteSpace=wrap;html=1;arcSize=40;fontColor=#000000;fillColor=#ffffc0;strokeColor=#ff0000;" parent="2" vertex="1">
          <mxGeometry x="55" y="132" width="120" height="40" as="geometry" />
        </mxCell>
        <mxCell id="GCuOK0tmfqvENnJVy2Cx-5" value="Ingin logout" style="rhombus;whiteSpace=wrap;html=1;fontColor=#000000;fillColor=#ffffc0;strokeColor=#ff0000;" vertex="1" parent="2">
          <mxGeometry x="75.5" y="252" width="80" height="40" as="geometry" />
        </mxCell>
        <mxCell id="GCuOK0tmfqvENnJVy2Cx-6" value="no" style="edgeStyle=orthogonalEdgeStyle;html=1;align=left;verticalAlign=bottom;endArrow=open;endSize=8;strokeColor=#ff0000;rounded=0;entryX=0.5;entryY=0;entryDx=0;entryDy=0;" edge="1" source="GCuOK0tmfqvENnJVy2Cx-5" parent="2" target="MbIi2jLNJX29HKI8zpPr-55">
          <mxGeometry x="-1" relative="1" as="geometry">
            <mxPoint x="255.5" y="272" as="targetPoint" />
          </mxGeometry>
        </mxCell>
        <mxCell id="GCuOK0tmfqvENnJVy2Cx-7" value="yes" style="edgeStyle=orthogonalEdgeStyle;html=1;align=left;verticalAlign=top;endArrow=open;endSize=8;strokeColor=#ff0000;rounded=0;entryX=0.5;entryY=0;entryDx=0;entryDy=0;" edge="1" source="GCuOK0tmfqvENnJVy2Cx-5" parent="2" target="GCuOK0tmfqvENnJVy2Cx-9">
          <mxGeometry x="-1" relative="1" as="geometry">
            <mxPoint x="115.5" y="352" as="targetPoint" />
          </mxGeometry>
        </mxCell>
        <mxCell id="MbIi2jLNJX29HKI8zpPr-55" value="" style="ellipse;html=1;shape=endState;fillColor=#000000;strokeColor=#ff0000;" parent="2" vertex="1">
          <mxGeometry x="225.5" y="492" width="30" height="30" as="geometry" />
        </mxCell>
        <mxCell id="GCuOK0tmfqvENnJVy2Cx-9" value="Tekan icon profile" style="rounded=1;whiteSpace=wrap;html=1;arcSize=40;fontColor=#000000;fillColor=#ffffc0;strokeColor=#ff0000;" vertex="1" parent="2">
          <mxGeometry x="55.5" y="342" width="120" height="40" as="geometry" />
        </mxCell>
        <mxCell id="GCuOK0tmfqvENnJVy2Cx-17" value="Tekan tombol keluar" style="rounded=1;whiteSpace=wrap;html=1;arcSize=40;fontColor=#000000;fillColor=#ffffc0;strokeColor=#ff0000;" vertex="1" parent="2">
          <mxGeometry x="55" y="412" width="120" height="40" as="geometry" />
        </mxCell>
        <mxCell id="GCuOK0tmfqvENnJVy2Cx-18" value="" style="edgeStyle=orthogonalEdgeStyle;html=1;verticalAlign=bottom;endArrow=open;endSize=8;strokeColor=#ff0000;rounded=0;entryX=0;entryY=0.5;entryDx=0;entryDy=0;exitX=0.5;exitY=1;exitDx=0;exitDy=0;" edge="1" source="GCuOK0tmfqvENnJVy2Cx-17" parent="2" target="MbIi2jLNJX29HKI8zpPr-55">
          <mxGeometry relative="1" as="geometry">
            <mxPoint x="115" y="512" as="targetPoint" />
          </mxGeometry>
        </mxCell>
        <mxCell id="3" value="Sistem" style="swimlane;whiteSpace=wrap" parent="1" vertex="1">
          <mxGeometry x="444.5" y="128" width="290" height="570" as="geometry" />
        </mxCell>
        <mxCell id="MbIi2jLNJX29HKI8zpPr-51" value="Cek Akun Terdaftar" style="rhombus;whiteSpace=wrap;html=1;fontColor=#000000;fillColor=#ffffc0;strokeColor=#ff0000;" parent="3" vertex="1">
          <mxGeometry x="75.5" y="132" width="80" height="40" as="geometry" />
        </mxCell>
        <mxCell id="MbIi2jLNJX29HKI8zpPr-54" value="Tampil Halaman Home" style="rounded=1;whiteSpace=wrap;html=1;arcSize=40;fontColor=#000000;fillColor=#ffffc0;strokeColor=#ff0000;" parent="3" vertex="1">
          <mxGeometry x="55.5" y="252" width="120" height="40" as="geometry" />
        </mxCell>
        <mxCell id="MbIi2jLNJX29HKI8zpPr-53" value="yes" style="edgeStyle=orthogonalEdgeStyle;html=1;align=left;verticalAlign=top;endArrow=open;endSize=8;strokeColor=#ff0000;rounded=0;" parent="3" source="MbIi2jLNJX29HKI8zpPr-51" target="MbIi2jLNJX29HKI8zpPr-54" edge="1">
          <mxGeometry x="-1" relative="1" as="geometry">
            <mxPoint x="115.5" y="232" as="targetPoint" />
          </mxGeometry>
        </mxCell>
        <mxCell id="MbIi2jLNJX29HKI8zpPr-58" style="edgeStyle=orthogonalEdgeStyle;rounded=0;orthogonalLoop=1;jettySize=auto;html=1;entryX=1;entryY=0.5;entryDx=0;entryDy=0;" parent="3" source="MbIi2jLNJX29HKI8zpPr-57" target="MbIi2jLNJX29HKI8zpPr-54" edge="1">
          <mxGeometry relative="1" as="geometry" />
        </mxCell>
        <mxCell id="MbIi2jLNJX29HKI8zpPr-57" value="Lakukan Pendaftaran Akun dengan data yang didapat dari google Auth" style="rounded=1;whiteSpace=wrap;html=1;arcSize=40;fontColor=#000000;fillColor=#ffffc0;strokeColor=#ff0000;" parent="3" vertex="1">
          <mxGeometry x="160" y="182" width="130" height="52" as="geometry" />
        </mxCell>
        <mxCell id="MbIi2jLNJX29HKI8zpPr-52" value="no" style="edgeStyle=orthogonalEdgeStyle;html=1;align=left;verticalAlign=bottom;endArrow=open;endSize=8;strokeColor=#ff0000;rounded=0;" parent="3" source="MbIi2jLNJX29HKI8zpPr-51" target="MbIi2jLNJX29HKI8zpPr-57" edge="1">
          <mxGeometry x="-1" relative="1" as="geometry">
            <mxPoint x="275.5" y="152" as="targetPoint" />
          </mxGeometry>
        </mxCell>
        <mxCell id="GCuOK0tmfqvENnJVy2Cx-14" value="Tampil halaman profile" style="rounded=1;whiteSpace=wrap;html=1;arcSize=40;fontColor=#000000;fillColor=#ffffc0;strokeColor=#ff0000;" vertex="1" parent="3">
          <mxGeometry x="80.5" y="352" width="120" height="40" as="geometry" />
        </mxCell>
        <mxCell id="MbIi2jLNJX29HKI8zpPr-46" value="" style="edgeStyle=orthogonalEdgeStyle;html=1;verticalAlign=bottom;endArrow=open;endSize=8;strokeColor=#ff0000;rounded=0;exitX=1;exitY=0.5;exitDx=0;exitDy=0;entryX=0;entryY=0.5;entryDx=0;entryDy=0;" parent="1" source="MbIi2jLNJX29HKI8zpPr-45" target="MbIi2jLNJX29HKI8zpPr-51" edge="1">
          <mxGeometry relative="1" as="geometry">
            <mxPoint x="279.5" y="360" as="targetPoint" />
          </mxGeometry>
        </mxCell>
        <mxCell id="GCuOK0tmfqvENnJVy2Cx-8" style="edgeStyle=orthogonalEdgeStyle;rounded=0;orthogonalLoop=1;jettySize=auto;html=1;entryX=0.5;entryY=0;entryDx=0;entryDy=0;strokeColor=#FF0000;" edge="1" parent="1" source="MbIi2jLNJX29HKI8zpPr-54" target="GCuOK0tmfqvENnJVy2Cx-5">
          <mxGeometry relative="1" as="geometry">
            <Array as="points">
              <mxPoint x="420" y="400" />
              <mxPoint x="420" y="360" />
              <mxPoint x="280" y="360" />
            </Array>
          </mxGeometry>
        </mxCell>
        <mxCell id="GCuOK0tmfqvENnJVy2Cx-16" style="edgeStyle=orthogonalEdgeStyle;rounded=0;orthogonalLoop=1;jettySize=auto;html=1;entryX=0;entryY=0.5;entryDx=0;entryDy=0;strokeColor=#FF0000;" edge="1" parent="1" source="GCuOK0tmfqvENnJVy2Cx-9" target="GCuOK0tmfqvENnJVy2Cx-14">
          <mxGeometry relative="1" as="geometry" />
        </mxCell>
        <mxCell id="GCuOK0tmfqvENnJVy2Cx-15" value="" style="edgeStyle=orthogonalEdgeStyle;html=1;verticalAlign=bottom;endArrow=open;endSize=8;strokeColor=#ff0000;rounded=0;entryX=1;entryY=0.5;entryDx=0;entryDy=0;exitX=0.5;exitY=1;exitDx=0;exitDy=0;" edge="1" source="GCuOK0tmfqvENnJVy2Cx-14" parent="1" target="GCuOK0tmfqvENnJVy2Cx-17">
          <mxGeometry relative="1" as="geometry">
            <mxPoint x="585" y="580" as="targetPoint" />
          </mxGeometry>
        </mxCell>
      </root>
    </mxGraphModel>
  </diagram>
</mxfile>
